<svg width="16" height="16" viewBox="0 0 16 16" fill="none" xmlns="http://www.w3.org/2000/svg">
<path d="M8.46973 5.46973C8.76262 5.17686 9.23739 5.17684 9.53027 5.46973L11.5303 7.46973C11.6709 7.61038 11.75 7.8011 11.75 8C11.75 8.1989 11.6709 8.38962 11.5303 8.53027L9.53027 10.5303C9.23739 10.8232 8.76262 10.8231 8.46973 10.5303C8.17683 10.2374 8.17683 9.76262 8.46973 9.46973L9.93945 8L8.46973 6.53027C8.17683 6.23738 8.17683 5.76262 8.46973 5.46973Z" fill="white"/>
<path fill-rule="evenodd" clip-rule="evenodd" d="M12 0.25C14.071 0.25 15.75 1.92896 15.75 4V12C15.75 14.0711 14.0711 15.75 12 15.75H4C1.92893 15.75 0.25 14.0711 0.25 12V4C0.250033 1.92896 1.92895 0.25 4 0.25H12ZM4 1.75C2.75738 1.75 1.75003 2.75739 1.75 4V12C1.75 13.2426 2.75736 14.25 4 14.25H4.25V1.75H4ZM5.75 14.25H12C13.2426 14.25 14.25 13.2426 14.25 12V4C14.25 2.75739 13.2426 1.75 12 1.75H5.75V14.25Z" fill="white"/>
</svg>
