<svg width="20" height="20" viewBox="0 0 20 20" fill="none" xmlns="http://www.w3.org/2000/svg">
<path d="M13.293 7.29297C13.6835 6.90244 14.3165 6.90244 14.707 7.29297C15.0976 7.68349 15.0976 8.31651 14.707 8.70703L13.4141 10L14.707 11.293C15.0976 11.6835 15.0976 12.3165 14.707 12.707C14.3165 13.0976 13.6835 13.0976 13.293 12.707L11.293 10.707C10.9024 10.3165 10.9024 9.68349 11.293 9.29297L13.293 7.29297Z" fill="white"/>
<path fill-rule="evenodd" clip-rule="evenodd" d="M16 0C18.2091 0 20 1.79086 20 4V16C20 18.2091 18.2091 20 16 20H4C1.79086 20 0 18.2091 0 16V4C2.57702e-07 1.79086 1.79086 0 4 0H16ZM4 2C2.89543 2 2 2.89543 2 4V16C2 17.1046 2.89543 18 4 18H6V2H4ZM8 18H16C17.1046 18 18 17.1046 18 16V4C18 2.89543 17.1046 2 16 2H8V18Z" fill="white"/>
</svg>
