<svg width="16" height="16" viewBox="0 0 16 16" fill="none" xmlns="http://www.w3.org/2000/svg">
<path d="M10.4697 5.46973C10.7626 5.17686 11.2374 5.17684 11.5303 5.46973C11.8231 5.76261 11.8231 6.23738 11.5303 6.53027L10.0605 8L11.5303 9.46973C11.8231 9.76261 11.8231 10.2374 11.5303 10.5303C11.2374 10.8232 10.7626 10.8231 10.4697 10.5303L8.46973 8.53027C8.32907 8.38962 8.25 8.19891 8.25 8C8.25 7.80109 8.32908 7.61038 8.46973 7.46973L10.4697 5.46973Z" fill="white"/>
<path fill-rule="evenodd" clip-rule="evenodd" d="M12 0.25C14.071 0.25 15.75 1.92896 15.75 4V12C15.75 14.0711 14.0711 15.75 12 15.75H4C1.92893 15.75 0.25 14.0711 0.25 12V4C0.250033 1.92896 1.92895 0.25 4 0.25H12ZM4 1.75C2.75738 1.75 1.75003 2.75739 1.75 4V12C1.75 13.2426 2.75736 14.25 4 14.25H4.25V1.75H4ZM5.75 14.25H12C13.2426 14.25 14.25 13.2426 14.25 12V4C14.25 2.75739 13.2426 1.75 12 1.75H5.75V14.25Z" fill="white"/>
</svg>
