<svg width="548" height="97" viewBox="0 0 548 97" fill="none" xmlns="http://www.w3.org/2000/svg">
<path d="M0 67.92V1.18999H26.72C31.63 1.18999 35.72 1.91999 39 3.36999C42.28 4.82999 44.75 6.83999 46.4 9.40999C48.05 11.98 48.88 14.94 48.88 18.29C48.88 20.9 48.36 23.18 47.32 25.15C46.28 27.12 44.85 28.72 43.04 29.97C41.23 31.22 39.16 32.1 36.83 32.63V33.28C39.37 33.39 41.75 34.11 43.98 35.43C46.21 36.76 48.01 38.61 49.4 40.99C50.79 43.37 51.48 46.2 51.48 49.48C51.48 53.02 50.61 56.18 48.86 58.95C47.11 61.72 44.53 63.91 41.12 65.52C37.71 67.13 33.51 67.93 28.51 67.93H0V67.92ZM14.11 29.11H24.57C26.5 29.11 28.22 28.77 29.73 28.08C31.24 27.4 32.43 26.42 33.31 25.16C34.19 23.9 34.63 22.39 34.63 20.63C34.63 18.22 33.78 16.28 32.07 14.8C30.36 13.32 27.95 12.58 24.82 12.58H14.1V29.1L14.11 29.11ZM14.11 56.38H25.61C29.54 56.38 32.41 55.63 34.21 54.12C36.01 52.61 36.91 50.6 36.91 48.08C36.91 46.23 36.46 44.6 35.57 43.19C34.68 41.78 33.41 40.67 31.77 39.87C30.13 39.07 28.18 38.66 25.92 38.66H14.09V56.39L14.11 56.38Z" fill="#737373"/>
<path d="M70.58 1.18999V67.92H56.7V1.18999H70.58Z" fill="#737373"/>
<path d="M110.09 46.61V17.87H123.97V67.92H110.64V58.83H110.12C108.99 61.76 107.12 64.12 104.5 65.9C101.88 67.68 98.7 68.57 94.94 68.57C91.59 68.57 88.65 67.81 86.11 66.29C83.57 64.77 81.59 62.61 80.16 59.81C78.74 57.01 78.01 53.65 77.99 49.74V17.87H91.87V47.26C91.89 50.21 92.68 52.55 94.25 54.26C95.81 55.98 97.91 56.83 100.54 56.83C102.21 56.83 103.78 56.44 105.23 55.67C106.69 54.9 107.86 53.75 108.77 52.23C109.67 50.71 110.11 48.83 110.09 46.59V46.61Z" fill="#737373"/>
<path d="M264.04 96.14L234.31 48.5L263.38 0.859985H240.64L220.8 33.33L201.37 0.859985H178.53L207.79 48.5L177.97 96.14H201.04L220.8 63.62L240.87 96.14H241.15H241.16H264.04Z" fill="#1E75DF"/>
<path d="M196.65 48.5L191.15 39.5H170.61L181.62 22.54L170.98 5.22998L111.01 96.14H133.89L158.94 57.5H191.15L196.65 48.5Z" fill="#1E75DF"/>
<path d="M298.971 50.3056H291.281L291.24 45.5889H297.474C298.595 45.5889 299.491 45.4658 300.161 45.2197C300.831 44.9599 301.316 44.584 301.617 44.0918C301.931 43.5996 302.088 42.9844 302.088 42.2461C302.088 41.3984 301.931 40.7148 301.617 40.1953C301.302 39.6758 300.803 39.2998 300.12 39.0674C299.45 38.8213 298.582 38.6982 297.515 38.6982H293.988V63H286.79V33.1406H297.515C299.361 33.1406 301.008 33.3115 302.458 33.6533C303.907 33.9814 305.137 34.4873 306.149 35.1709C307.174 35.8545 307.954 36.7158 308.487 37.7549C309.02 38.7803 309.287 39.9902 309.287 41.3848C309.287 42.6015 309.027 43.7431 308.507 44.8096C307.988 45.876 307.12 46.7441 305.903 47.414C304.7 48.0703 303.052 48.4121 300.96 48.4394L298.971 50.3056ZM298.684 63H289.538L291.999 57.4629H298.684C299.668 57.4629 300.455 57.3125 301.042 57.0117C301.644 56.6973 302.075 56.2871 302.334 55.7812C302.608 55.2617 302.745 54.6875 302.745 54.0586C302.745 53.293 302.615 52.6299 302.355 52.0693C302.109 51.5088 301.712 51.0781 301.166 50.7773C300.619 50.4629 299.887 50.3056 298.971 50.3056H292.921L292.962 45.5889H300.202L301.883 47.4756C303.879 47.3935 305.458 47.6738 306.621 48.3164C307.796 48.959 308.637 49.8066 309.143 50.8594C309.649 51.9121 309.902 53.0127 309.902 54.1611C309.902 56.1162 309.478 57.75 308.63 59.0625C307.796 60.375 306.545 61.3594 304.877 62.0156C303.209 62.6719 301.145 63 298.684 63ZM320.381 60.3955L326.124 40.8105H333.547L324.626 66.3017C324.435 66.8623 324.182 67.4639 323.868 68.1064C323.553 68.7627 323.123 69.3848 322.576 69.9726C322.029 70.5605 321.325 71.039 320.463 71.4082C319.616 71.7773 318.563 71.9619 317.305 71.9619C316.635 71.9619 316.143 71.9277 315.829 71.8594C315.528 71.8047 315.063 71.7021 314.434 71.5517V66.6094C314.612 66.6094 314.762 66.6094 314.885 66.6094C315.022 66.6094 315.172 66.6094 315.336 66.6094C316.075 66.6094 316.663 66.5342 317.1 66.3838C317.551 66.2334 317.893 66.0146 318.125 65.7275C318.372 65.4404 318.563 65.0918 318.7 64.6816L320.381 60.3955ZM318.925 40.8105L323.293 56.3349L324.052 63.6562H319.417L311.522 40.8105H318.925Z" fill="#737373"/>
<g clip-path="url(#clip0_1180_324)">
<path d="M376.722 15.4055H345.513V36.674H355.919V26.0398H376.722V36.674H387.128V15.4055H376.722Z" fill="#1E75DF"/>
<path d="M368.284 31.3528H364.357C362.568 31.3528 361.118 32.8348 361.118 34.663V49.311C361.118 51.1392 362.568 52.6213 364.357 52.6213H368.284C370.073 52.6213 371.523 51.1392 371.523 49.311V34.663C371.523 32.8348 370.073 31.3528 368.284 31.3528Z" fill="#1E75DF"/>
<path d="M376.722 54.4419L366.179 65.2251L355.919 54.7398V41.987H345.513V59.1922H345.562L366.179 80.2621L387.087 58.8942H387.128V41.987H376.722V54.4419Z" fill="#1E75DF"/>
<path d="M402.805 45.8269V15.4386H413.535C415.155 15.3918 416.767 15.6767 418.277 16.2765C419.788 16.8763 421.165 17.7788 422.329 18.9309C423.497 20.092 424.415 21.4899 425.023 23.0348C425.631 24.5798 425.916 26.2376 425.86 27.9018V33.3637C425.914 35.024 425.628 36.6775 425.02 38.2182C424.412 39.7588 423.495 41.1525 422.329 42.3098C421.167 43.4664 419.791 44.3735 418.28 44.9775C416.77 45.5816 415.156 45.8704 413.535 45.8269H402.805ZM409.729 20.8675V40.3981H413.073C413.889 40.4413 414.703 40.2896 415.451 39.9548C416.198 39.6201 416.86 39.1116 417.381 38.4698C418.474 37.0094 419.025 35.2002 418.936 33.3637V27.8604C419.025 26.0343 418.473 24.2357 417.381 22.7874C416.858 22.1482 416.196 21.642 415.449 21.3088C414.701 20.9756 413.888 20.8245 413.073 20.8675H409.729ZM435.01 45.8269H428.111V15.4386H434.994L435.01 45.8269ZM461.247 41.6312C460.021 43.0144 458.523 44.1171 456.85 44.867C454.571 45.8746 452.101 46.3523 449.619 46.2655C447.974 46.3352 446.333 46.0638 444.794 45.4679C443.254 44.872 441.849 43.9638 440.663 42.798C439.514 41.6214 438.615 40.2151 438.023 38.6672C437.431 37.1193 437.158 35.4631 437.221 33.8024V27.4632C437.161 25.8124 437.428 24.1662 438.005 22.6233C438.583 21.0804 439.459 19.6726 440.582 18.4841C441.711 17.3258 443.062 16.4185 444.55 15.819C446.038 15.2194 447.631 14.9406 449.23 15C453.058 15 455.924 15.9048 457.83 17.7144C459.81 19.6766 460.971 22.3455 461.069 25.1625L461.029 25.2867H454.55C454.444 23.9317 453.916 22.6471 453.044 21.6205C452.555 21.1846 451.986 20.8531 451.37 20.6456C450.754 20.4381 450.103 20.3587 449.457 20.4123C448.704 20.3923 447.957 20.5596 447.282 20.8998C446.606 21.24 446.021 21.743 445.578 22.3654C444.545 23.8307 444.026 25.6093 444.104 27.4135V33.7941C444.016 35.615 444.529 37.4134 445.562 38.9002C446.033 39.5328 446.648 40.0388 447.353 40.3747C448.059 40.7106 448.833 40.8663 449.611 40.8284C450.616 40.8611 451.621 40.7553 452.599 40.5139C453.217 40.3584 453.798 40.077 454.307 39.6864V34.8616H449.635V30.219H461.239L461.247 41.6312ZM470.714 45.8269H463.83V15.4386H470.714V45.8269ZM495.169 20.8675H487.322V45.8269H480.399V20.8675H472.649V15.4386H495.201L495.169 20.8675ZM509.753 39.9181H500.384L498.708 45.8269H491.76L501.364 15.4386H508.773L518.393 45.8269H511.454L509.753 39.9181ZM501.914 34.4975H508.223L505.121 23.6233H505.04L501.914 34.4975ZM526.629 40.3981H539.432V45.8269H519.705V15.4386H526.629V40.3981ZM418.588 73.5009C418.612 73.0336 418.531 72.5668 418.352 72.1365C418.172 71.7061 417.898 71.3235 417.551 71.0181C416.405 70.2065 415.143 69.5812 413.81 69.1644C410.031 67.9561 407.248 66.6596 405.461 65.2748C404.561 64.5775 403.842 63.665 403.368 62.6174C402.894 61.5698 402.678 60.4192 402.74 59.2667C402.726 58.0417 403.015 56.8331 403.582 55.7535C404.148 54.6739 404.973 53.7585 405.98 53.093C408.407 51.4392 411.284 50.6135 414.199 50.7344C417.112 50.6063 419.978 51.5258 422.297 53.333C423.298 54.1111 424.099 55.1264 424.631 56.2913C425.163 57.4562 425.409 58.7357 425.35 60.0197V60.1439H418.612C418.627 59.5946 418.528 59.0483 418.32 58.5416C418.112 58.035 417.8 57.5796 417.406 57.206C416.479 56.4067 415.288 56.001 414.077 56.0722C412.925 56.0113 411.786 56.3431 410.838 57.0157C410.474 57.2751 410.177 57.6204 409.971 58.0223C409.765 58.4242 409.657 58.871 409.656 59.3246C409.655 59.7576 409.766 60.1833 409.976 60.5593C410.186 60.9353 410.489 61.2486 410.854 61.468C412.274 62.2963 413.775 62.9704 415.333 63.479C418.101 64.203 420.697 65.4954 422.961 67.2775C423.816 68.0476 424.491 69.0046 424.936 70.0776C425.38 71.1507 425.582 72.3122 425.528 73.476C425.566 74.6993 425.304 75.9128 424.765 77.0057C424.226 78.0986 423.427 79.0361 422.442 79.7324C420.402 81.2662 417.703 82.0331 414.345 82.0331C411.232 82.1113 408.171 81.2036 405.583 79.4345C404.394 78.6269 403.436 77.5127 402.805 76.2048C402.173 74.8968 401.891 73.4416 401.987 71.9864L402.028 71.854H408.749C408.749 73.6167 409.211 74.8663 410.134 75.6194C411.385 76.4366 412.865 76.8089 414.345 76.6787C415.475 76.7639 416.599 76.4546 417.535 75.8015C417.875 75.5292 418.147 75.1791 418.33 74.7795C418.513 74.3798 418.601 73.9418 418.588 73.5009ZM451.935 81.5614H445.052V69.3299H434.039V81.5614H427.115V51.173H434.039V63.901H445.052V51.173H451.935V81.5614ZM479.127 69.0982C479.182 70.8013 478.902 72.4983 478.304 74.0889C477.706 75.6795 476.802 77.1314 475.645 78.3587C474.458 79.5848 473.035 80.5449 471.465 81.1775C469.895 81.8101 468.213 82.1015 466.527 82.0331C464.846 82.1101 463.169 81.8296 461.6 81.2093C460.031 80.5889 458.605 79.6423 457.413 78.4294C456.221 77.2164 455.288 75.7637 454.674 74.1631C454.06 72.5625 453.778 70.8491 453.846 69.1313V63.6279C453.792 61.926 454.073 60.2304 454.674 58.6422C455.275 57.054 456.183 55.6058 457.344 54.384C459.829 52.0384 463.088 50.7358 466.47 50.7358C469.853 50.7358 473.112 52.0384 475.597 54.384C476.764 55.6022 477.679 57.049 478.286 58.6375C478.892 60.226 479.179 61.9235 479.127 63.6279V69.0982ZM472.244 63.5866C472.322 61.6874 471.794 59.8138 470.738 58.2487C470.226 57.5993 469.577 57.0754 468.841 56.7154C468.105 56.3554 467.299 56.1686 466.482 56.1686C465.666 56.1686 464.86 56.3554 464.124 56.7154C463.387 57.0754 462.739 57.5993 462.227 58.2487C461.183 59.8214 460.663 61.6963 460.745 63.5948V69.1065C460.664 71.0203 461.189 72.9098 462.243 74.4939C462.735 75.1779 463.386 75.7265 464.136 76.0905C464.886 76.4545 465.714 76.6225 466.543 76.5794C467.359 76.6176 468.172 76.4468 468.907 76.0826C469.643 75.7184 470.278 75.1723 470.754 74.4939C471.802 72.9073 472.324 71.0189 472.244 69.1065V63.5866ZM491.274 73.3188L491.476 74.4195H491.598L491.808 73.4015L497.704 51.173H504.935L495.299 81.5614H487.84L478.212 51.173H485.419L491.274 73.3188ZM524.337 68.5603H512.668V76.1325H526.435V81.5614H505.745V51.173H526.459V56.5936H512.693V63.1314H524.362L524.337 68.5603ZM534.711 76.1325H547.513V81.5614H527.787V51.173H534.711V76.1325Z" fill="#737373"/>
</g>
<defs>
<clipPath id="clip0_1180_324">
<rect width="202" height="67" fill="white" transform="translate(345.513 15)"/>
</clipPath>
</defs>
</svg>
